<?xml version="1.0" encoding="utf-8"?>
<!-- Generator: Adobe Illustrator 26.5.0, SVG Export Plug-In . SVG Version: 6.00 Build 0)  -->
<svg version="1.1" id="Camada_1" xmlns="http://www.w3.org/2000/svg" xmlns:xlink="http://www.w3.org/1999/xlink" x="0px" y="0px"
	 viewBox="0 0 1530.7 376.6" style="enable-background:new 0 0 1530.7 376.6;" xml:space="preserve">
<style type="text/css">
	.st0{display:none;}
	.st1{display:inline;fill:#FFFFFF;}
</style>
<g>
	<path d="M621.8,165.9h65.2v93.4h25.7v-93.4h65.2v-21.7h-156V165.9z"/>
	<path d="M566.7,144.1h25.7v115.1h-25.7V144.1z"/>
	<path d="M1471.7,144.6h-93.8v114.8h25.7v-93.1h62.2c24.2,0,39.4,8.9,39.4,36v57.1h25.7v-60.4
		C1530.7,168.5,1513.1,144.6,1471.7,144.6"/>
	<path d="M1285.9,130.5h37.7c4.3,0,8-3.7,8-8.2c0-4.7-3.7-8.4-8-8.4h-37.7c-4.7,0-8.4,3.7-8.4,8.4
		C1277.6,126.6,1281.4,130.5,1285.9,130.5"/>
	<path d="M917.7,214.1c35.5-0.8,47.2-10.3,47.2-34.6c0-22-15.7-34.9-42.2-34.9H807v114.8h25.7v-93.1h90.1c10.2,0,15.5,4.6,15.5,13.7
		c0,8-2.5,15.7-19.1,15.2h-64.8v6.6l79.1,57.1h37.2L905,213.8L917.7,214.1L917.7,214.1z"/>
	<path d="M1105.7,142.2c-7.8-0.4-15.8-0.5-23.8-0.5c-13.4,0-22.2,0.5-22.3,0.5h-0.5c-18.6,0.6-34.6,6.8-46,18
		c-10.9,10.7-16.9,25.6-16.9,41.8v0.1c0,34.9,25.3,58.9,63.1,59.8c7.8,0.4,15.8,0.5,23.8,0.5c13.4,0,22.2-0.5,22.3-0.5h0.4
		c18.6-0.6,34.6-6.8,46-18c10.9-10.7,16.9-25.6,16.9-41.8V202C1168.8,167.8,1143.4,143.8,1105.7,142.2 M1141.5,201.7
		c-0.1,22.2-14.5,36.5-37.6,37.4h-0.5h-0.5c-1.4,0.1-6.8,0.5-18.6,0.5c-7.8,0-15.4-0.1-22.3-0.5h-0.4c-23.4-0.6-37.9-15-37.9-37.4
		c0-22.3,14.4-36.7,37.6-37.7h0.5h0.5c0.1,0,9.7-0.5,22.9-0.5c7.4,0,10.6,0.1,16.9,0.5h1c24,1.1,38.3,15.1,38.3,37.6L1141.5,201.7
		L1141.5,201.7z"/>
	<path d="M1202.2,259.4h139.9v-21.7h-114.3v-25.8H1328v-20.8h-100.3v-24.8h114.3v-21.7h-139.9V259.4z"/>
	<path d="M1220.4,130.5h37.6c4.4,0,8.2-3.7,8.2-8.2c0-4.7-3.7-8.4-8.2-8.4h-37.6c-4.7,0-8.4,3.7-8.4,8.4
		C1212.1,126.6,1215.8,130.5,1220.4,130.5"/>
	<path d="M432.4,145h-0.4c-18.2,0.6-33.8,6.5-45.1,17c-10.7,10.2-16.6,24.2-16.6,39.7v0.1c0,33.1,24.8,55.9,61.8,56.8
		c10.4,0.5,41.8,0.5,54.8,0.5c16.8,0,32.9-0.1,37.7-0.1v-22c-7.2,0.1-61.7,0.1-68.2,0.1c-7.6,0-15.2-0.1-22.1-0.5
		c-22.7-0.5-37.3-14.2-37.3-34.8s14.5-34.4,36.8-35.3h0.5h0.5c0.1,0,9.5-0.5,22.4-0.5c3.6,0,59.6,0.1,67.2,0.2v-21.6
		c-5-0.1-13-0.1-23.4-0.1C472.5,144.5,432.9,145,432.4,145"/>
	<path d="M135.8,19.8C61,19.8,0,95.4,0,188.4s61,168.5,135.8,168.5s135.8-75.6,135.8-168.5S210.7,19.8,135.8,19.8L135.8,19.8z
		 M25.1,246.6l-0.1-0.4c-4.6-13.9-5.9-26.2-5.9-26.3v-0.1l0.1-0.1l116.6-86.3l116.7,86.4v0.1c0,0.1-1.3,12.4-5.9,26.3l-0.1,0.4
		l-0.4-0.2l0,0l-110.4-82L25.1,246.6z M135.8,340.9c-38.9,0-75.4-24.1-97.8-64.6l-0.2-0.5l98.2-72.6l98.2,72.6l-0.2,0.5
		C211.2,316.8,174.8,340.9,135.8,340.9z M135.8,94.1L16.1,182.9v-0.6c1.2-39.5,14.2-76.3,36.6-103.8c22.4-27.6,52.1-42.8,83.2-42.8
		s60.7,15.2,83.2,42.8c22.4,27.5,35.4,64.3,36.6,103.8v0.6l-0.5-0.4L135.8,94.1z"/>
</g>
<g class="st0">
	<path class="st1" d="M645.5,169.6h54.3v77.8h21.4v-77.8h54.3v-18.1h-130V169.6z"/>
	<path class="st1" d="M599.6,151.5H621v95.9h-21.4V151.5z"/>
	<path class="st1" d="M1353.8,151.9h-78.2v95.7h21.4V170h51.8c20.2,0,32.8,7.4,32.8,30v47.6h21.4v-50.3
		C1402.9,171.8,1388.2,151.9,1353.8,151.9"/>
	<path class="st1" d="M1199,140h31.4c3.6,0,6.7-3.1,6.7-6.8c0-3.9-3.1-7-6.7-7H1199c-3.9,0-7,3.1-7,7
		C1192,136.9,1195.2,140,1199,140"/>
	<path class="st1" d="M892.1,209.8c29.6-0.7,39.3-8.6,39.3-28.8c0-18.3-13.1-29.1-35.2-29.1h-96.3v95.7h21.4V170h75.1
		c8.5,0,12.9,3.8,12.9,11.4c0,6.7-2.1,13.1-15.9,12.7h-54v5.5l65.9,47.6h31l-54.8-37.6L892.1,209.8L892.1,209.8z"/>
	<path class="st1" d="M1048.7,149.9c-6.5-0.3-13.2-0.4-19.8-0.4c-11.2,0-18.5,0.4-18.6,0.4h-0.4c-15.5,0.5-28.8,5.7-38.3,15
		c-9.1,8.9-14.1,21.3-14.1,34.8v0.1c0,29.1,21.1,49.1,52.6,49.8c6.5,0.3,13.2,0.4,19.8,0.4c11.2,0,18.5-0.4,18.6-0.4h0.3
		c15.5-0.5,28.8-5.7,38.3-15c9.1-8.9,14.1-21.3,14.1-34.8v-0.1C1101.3,171.2,1080.2,151.2,1048.7,149.9 M1078.5,199.5
		c-0.1,18.5-12.1,30.4-31.3,31.2h-0.4h-0.4c-1.2,0.1-5.7,0.4-15.5,0.4c-6.5,0-12.8-0.1-18.6-0.4h-0.3c-19.5-0.5-31.6-12.5-31.6-31.2
		c0-18.6,12-30.6,31.3-31.4h0.4h0.4c0.1,0,8.1-0.4,19.1-0.4c6.2,0,8.8,0.1,14.1,0.4h0.8C1066.5,169,1078.4,180.7,1078.5,199.5
		L1078.5,199.5L1078.5,199.5z"/>
	<path class="st1" d="M1129.1,247.6h116.6v-18.1h-95.3V208h83.6v-17.3h-83.6V170h95.3v-18.1h-116.6V247.6z"/>
	<path class="st1" d="M1144.4,140h31.3c3.7,0,6.8-3.1,6.8-6.8c0-3.9-3.1-7-6.8-7h-31.3c-3.9,0-7,3.1-7,7
		C1137.4,136.9,1140.5,140,1144.4,140"/>
	<path class="st1" d="M487.7,152.2h-0.3c-15.2,0.5-28.2,5.4-37.6,14.2c-8.9,8.5-13.8,20.2-13.8,33.1v0.1c0,27.6,20.7,46.6,51.5,47.3
		c8.7,0.4,34.8,0.4,45.7,0.4c14,0,27.4-0.1,31.4-0.1v-18.3c-6,0.1-51.4,0.1-56.8,0.1c-6.3,0-12.7-0.1-18.4-0.4
		c-18.9-0.4-31.1-11.8-31.1-29s12.1-28.7,30.7-29.4h0.4h0.4c0.1,0,7.9-0.4,18.7-0.4c3,0,49.7,0.1,56,0.2v-18
		c-4.2-0.1-10.8-0.1-19.5-0.1C521.1,151.8,488,152.2,487.7,152.2"/>
	<path class="st1" d="M240.5,47.8c-62.4,0-113.2,63-113.2,140.4s50.8,140.5,113.2,140.5s113.2-63,113.2-140.5S302.9,47.8,240.5,47.8
		L240.5,47.8z M148.2,236.9l-0.1-0.3c-3.8-11.6-4.9-21.8-4.9-21.9v-0.1l0.1-0.1l97.2-71.9l97.3,72v0.1c0,0.1-1.1,10.3-4.9,21.9
		l-0.1,0.3l-0.3-0.2l0,0l-92-68.3L148.2,236.9z M240.5,315.5c-32.4,0-62.8-20.1-81.5-53.8l-0.2-0.4l81.8-60.5l81.8,60.5l-0.2,0.4
		C303.3,295.4,272.9,315.5,240.5,315.5L240.5,315.5z M240.5,109.7l-99.8,74.1v-0.5c1-32.8,11.8-63.6,30.5-86.5
		c18.7-23,43.4-35.7,69.3-35.7s50.6,12.7,69.3,35.7c18.7,22.9,29.5,53.6,30.5,86.5v0.5l-0.4-0.3L240.5,109.7z"/>
</g>
</svg>
